HIERARCHY
ROOT Hips
{
	OFFSET 0.000000 89.005402 0.000000
	CHANNELS 6 Xposition Yposition Zposition Xrotation Yrotation Zrotation
	JOINT Spine
	{
		OFFSET 0.116900 10.681000 0.373400
		CHANNELS 3 Xrotation Yrotation Zrotation
		JOINT Spine1
		{
			OFFSET 0.000000 13.840401 0.053500
			CHANNELS 3 Xrotation Yrotation Zrotation
			JOINT Spine2
			{
				OFFSET 0.000000 14.712700 -0.366200
				CHANNELS 3 Xrotation Yrotation Zrotation
				JOINT Neck
				{
					OFFSET 0.000000 35.415497 -3.314200
					CHANNELS 3 Xrotation Yrotation Zrotation
					JOINT Head
					{
						OFFSET 0.000000 16.899200 1.218300
						CHANNELS 3 Xrotation Yrotation Zrotation
						JOINT HeadTop_End
						{
							OFFSET 0.000000 22.206207 2.192500
							CHANNELS 3 Xrotation Yrotation Zrotation
							End Site
							{
								OFFSET 0.000000 22.314178 0.000000
							}
						}
					}
				}
				JOINT LeftShoulder
				{
					OFFSET 12.896400 26.716293 -4.548400
					CHANNELS 3 Xrotation Yrotation Zrotation
					JOINT LeftArm
					{
						OFFSET 19.027000 -4.857010 -1.718400
						CHANNELS 3 Xrotation Yrotation Zrotation
						JOINT LeftForeArm
						{
							OFFSET 24.179897 0.000000 0.000000
							CHANNELS 3 Xrotation Yrotation Zrotation
							JOINT LeftHand
							{
								OFFSET 27.156403 0.000000 0.000000
								CHANNELS 3 Xrotation Yrotation Zrotation
								JOINT LeftHandIndex1
								{
									OFFSET 16.441200 0.000000 0.000000
									CHANNELS 3 Xrotation Yrotation Zrotation
									JOINT LeftHandIndex2
									{
										OFFSET 4.821899 0.000000 0.000000
										CHANNELS 3 Xrotation Yrotation Zrotation
										JOINT LeftHandIndex3
										{
											OFFSET 6.386497 0.000000 0.000000
											CHANNELS 3 Xrotation Yrotation Zrotation
											JOINT LeftHandIndex4
											{
												OFFSET 5.188988 0.000000 0.000000
												CHANNELS 3 Xrotation Yrotation Zrotation
												End Site
												{
													OFFSET -0.178703 5.185913 0.000177
												}
											}
										}
									}
								}
								JOINT LeftHandThumb1
								{
									OFFSET 6.534897 -5.032593 5.900300
									CHANNELS 3 Xrotation Yrotation Zrotation
									JOINT LeftHandThumb2
									{
										OFFSET 3.818176 -2.204422 2.204423
										CHANNELS 3 Xrotation Yrotation Zrotation
										JOINT LeftHandThumb3
										{
											OFFSET 3.252098 -1.877594 1.877601
											CHANNELS 3 Xrotation Yrotation Zrotation
											JOINT LeftHandThumb4
											{
												OFFSET 5.251778 -3.032120 3.032117
												CHANNELS 3 Xrotation Yrotation Zrotation
												End Site
												{
													OFFSET 0.000023 6.780014 0.000000
												}
											}
										}
									}
								}
							}
						}
					}
				}
				JOINT RightShoulder
				{
					OFFSET -12.896300 26.716293 -4.548400
					CHANNELS 3 Xrotation Yrotation Zrotation
					JOINT RightArm
					{
						OFFSET -19.027000 -4.857010 -1.718400
						CHANNELS 3 Xrotation Yrotation Zrotation
						JOINT RightForeArm
						{
							OFFSET -24.179897 0.000000 0.000000
							CHANNELS 3 Xrotation Yrotation Zrotation
							JOINT RightHand
							{
								OFFSET -27.156403 0.000000 0.000000
								CHANNELS 3 Xrotation Yrotation Zrotation
								JOINT RightHandThumb1
								{
									OFFSET -6.591202 -4.852203 5.988100
									CHANNELS 3 Xrotation Yrotation Zrotation
									JOINT RightHandThumb2
									{
										OFFSET -3.818176 -2.204422 2.204423
										CHANNELS 3 Xrotation Yrotation Zrotation
										JOINT RightHandThumb3
										{
											OFFSET -3.252098 -1.877594 1.877601
											CHANNELS 3 Xrotation Yrotation Zrotation
											JOINT RightHandThumb4
											{
												OFFSET -5.251778 -3.032120 3.032117
												CHANNELS 3 Xrotation Yrotation Zrotation
												End Site
												{
													OFFSET -0.000023 6.780014 0.000000
												}
											}
										}
									}
								}
								JOINT RightHandIndex1
								{
									OFFSET -16.029404 0.000000 0.000000
									CHANNELS 3 Xrotation Yrotation Zrotation
									JOINT RightHandIndex2
									{
										OFFSET -5.213303 0.000000 0.000000
										CHANNELS 3 Xrotation Yrotation Zrotation
										JOINT RightHandIndex3
										{
											OFFSET -6.386528 0.000000 0.000000
											CHANNELS 3 Xrotation Yrotation Zrotation
											JOINT RightHandIndex4
											{
												OFFSET -5.189026 0.000000 0.000000
												CHANNELS 3 Xrotation Yrotation Zrotation
												End Site
												{
													OFFSET 0.236702 5.183624 0.001972
												}
											}
										}
									}
								}
							}
						}
					}
				}
			}
		}
	}
	JOINT LeftUpLeg
	{
		OFFSET 14.073000 -7.904099 -1.463000
		CHANNELS 3 Xrotation Yrotation Zrotation
		JOINT LeftLeg
		{
			OFFSET -0.109806 -34.073280 4.093200
			CHANNELS 3 Xrotation Yrotation Zrotation
			JOINT LeftFoot
			{
				OFFSET 0.109806 -29.899420 -6.319000
				CHANNELS 3 Xrotation Yrotation Zrotation
				JOINT LeftToeBase
				{
					OFFSET 1.551100 -14.988700 20.535801
					CHANNELS 3 Xrotation Yrotation Zrotation
					JOINT LeftToe_End
					{
						OFFSET 0.221200 0.570800 13.248301
						CHANNELS 3 Xrotation Yrotation Zrotation
						End Site
						{
							OFFSET 0.000000 13.262435 0.000000
						}
					}
				}
			}
		}
	}
	JOINT RightUpLeg
	{
		OFFSET -13.839300 -7.904099 -1.463000
		CHANNELS 3 Xrotation Yrotation Zrotation
		JOINT RightLeg
		{
			OFFSET 0.109694 -34.073219 4.093300
			CHANNELS 3 Xrotation Yrotation Zrotation
			JOINT RightFoot
			{
				OFFSET -0.109694 -29.899384 -6.319200
				CHANNELS 3 Xrotation Yrotation Zrotation
				JOINT RightToeBase
				{
					OFFSET -1.551100 -14.988700 20.535801
					CHANNELS 3 Xrotation Yrotation Zrotation
					JOINT RightToe_End
					{
						OFFSET -0.221200 0.570900 13.248299
						CHANNELS 3 Xrotation Yrotation Zrotation
						End Site
						{
							OFFSET 0.000000 13.262440 0.000000
						}
					}
				}
			}
		}
	}
}
MOTION
Frames: 4
Frame Time: 0.033333
-0.111598 120.031860 1.293463 -5.549979 17.717845 6.894139 0.154140 -0.817988 -1.136266 0.313265 -1.370197 -1.299822 0.313266 -1.370200 -1.299822 7.714460 -2.164492 0.197470 8.255366 -11.438073 -2.203085 0.000000 0.000000 0.000000 0.383875 0.241294 -3.338421 -1.866029 36.648305 -6.876126 13.392112 -80.410103 13.211573 41.143690 12.543730 28.640592 -6.697121 -2.459054 10.394018 0.518805 0.852054 -8.045121 0.000002 -0.000000 0.000006 -0.000000 -0.000003 -0.000000 -9.327288 5.317539 9.810502 4.331890 -1.353678 9.862604 0.000006 -0.000001 0.000016 0.000001 0.000000 0.000001 0.570971 2.998519 5.279506 -1.665490 -1.563068 28.844504 4.001730 59.456537 -3.447923 -13.998297 -24.714963 -27.701417 -10.328013 -1.313896 -8.957170 5.929310 0.659281 -8.093385 0.000005 -0.000005 -0.000004 -0.000004 -0.000003 -0.000000 -5.103960 2.286763 -8.562052 0.056197 -0.632376 6.483866 0.000009 -0.000009 -0.000007 -0.000000 -0.000001 -0.000002 -31.410449 10.808202 -1.148915 36.933585 -0.408421 -1.285036 -1.618985 2.422786 0.732261 -6.859755 -0.042587 0.024932 -0.000001 0.000000 0.000000 -46.923116 -3.130800 -9.560200 61.463998 1.437665 2.204031 13.671862 -15.099206 6.347691 0.000169 0.001223 -0.004052 -0.000000 -0.000000 -0.000000 
-0.111598 120.031860 1.293463 -5.549979 17.717845 6.894139 0.154140 -0.817988 -1.136266 0.313265 -1.370197 -1.299822 0.313266 -1.370200 -1.299822 7.714460 -2.164492 0.197470 8.255366 -11.438073 -2.203085 0.000000 0.000000 0.000000 0.383875 0.241294 -3.338421 -1.866029 36.648305 -6.876126 13.392112 -80.410103 13.211573 41.143690 12.543730 28.640592 -6.697121 -2.459054 10.394018 0.518805 0.852054 -8.045121 0.000002 -0.000000 0.000006 -0.000000 -0.000003 -0.000000 -9.327288 5.317539 9.810502 4.331890 -1.353678 9.862604 0.000006 -0.000001 0.000016 0.000001 0.000000 0.000001 0.570971 2.998519 5.279506 -1.665490 -1.563068 28.844504 4.001730 59.456537 -3.447923 -13.998297 -24.714963 -27.701417 -10.328013 -1.313896 -8.957170 5.929310 0.659281 -8.093385 0.000005 -0.000005 -0.000004 -0.000004 -0.000003 -0.000000 -5.103960 2.286763 -8.562052 0.056197 -0.632376 6.483866 0.000009 -0.000009 -0.000007 -0.000000 -0.000001 -0.000002 -31.410449 10.808202 -1.148915 36.933585 -0.408421 -1.285036 -1.618985 2.422786 0.732261 -6.859755 -0.042587 0.024932 -0.000001 0.000000 0.000000 -46.923116 -3.130800 -9.560200 61.463998 1.437665 2.204031 13.671862 -15.099206 6.347691 0.000169 0.001223 -0.004052 -0.000000 -0.000000 -0.000000 
-0.203355 120.003975 1.290307 -5.327539 17.611446 6.638459 0.149423 -0.816056 -1.139600 0.303974 -1.358819 -1.296770 0.303971 -1.358819 -1.296770 7.879685 -2.162018 0.120218 8.713202 -11.453639 -2.173331 0.000000 0.000000 -0.000000 0.381812 0.263068 -3.311736 -1.408457 36.326262 -7.397134 12.214233 -79.485275 12.015137 41.018735 12.723381 29.180020 -6.697121 -2.459058 10.394009 0.518803 0.852058 -8.045124 0.000005 -0.000004 0.000004 -0.000002 0.000003 0.000002 -9.327281 5.317545 9.810487 4.331894 -1.353689 9.862628 0.000004 -0.000001 0.000017 -0.000001 0.000003 0.000001 0.564369 2.856562 5.057382 -1.065005 -2.443271 28.556311 4.141388 60.456579 -3.604473 -13.384850 -25.653405 -26.355545 -10.328011 -1.313878 -8.957167 5.929344 0.659273 -8.093393 0.000009 -0.000007 -0.000006 -0.000002 0.000000 0.000001 -5.103956 2.286782 -8.562057 0.056202 -0.632387 6.483855 0.000009 -0.000011 -0.000007 0.000001 0.000000 0.000001 -31.814816 10.540257 -0.888804 37.129516 -0.416211 -1.291966 -1.630102 2.664489 0.617152 -6.865502 -0.042620 0.024951 -0.000000 -0.000000 -0.000000 -47.164676 -3.523116 -9.378559 61.374495 1.421840 2.199566 13.661744 -15.093974 6.176727 0.321083 -0.002095 0.001592 -0.000001 0.000001 0.000000 
-0.296173 119.979637 1.296851 -5.179016 17.486449 6.416477 0.159809 -0.813213 -1.141582 0.324796 -1.348761 -1.296398 0.324797 -1.348772 -1.296400 8.049562 -2.174914 -0.010705 9.017027 -11.568735 -2.205228 0.000002 0.000000 0.000001 0.374510 0.324163 -3.194474 -0.681903 35.812379 -8.226857 10.994707 -78.313371 10.772187 40.749926 13.148483 30.769094 -6.697134 -2.459045 10.393999 0.518816 0.852070 -8.045120 0.000003 -0.000002 0.000006 -0.000000 -0.000003 -0.000002 -9.327289 5.317534 9.810500 4.331890 -1.353682 9.862612 0.000004 -0.000000 0.000017 0.000001 -0.000003 -0.000002 0.559169 2.755890 4.880598 -0.425228 -3.620045 28.151509 4.323429 61.765612 -3.810644 -12.114324 -26.479119 -24.828837 -10.328016 -1.313899 -8.957174 5.929323 0.659281 -8.093399 0.000009 -0.000006 -0.000007 0.000001 -0.000001 -0.000001 -5.103963 2.286766 -8.562050 0.056213 -0.632382 6.483862 0.000011 -0.000006 -0.000007 0.000001 -0.000002 0.000002 -32.119839 10.307084 -0.644576 37.331874 -0.416808 -1.297704 -1.736664 2.827594 0.637114 -6.886533 -0.042756 0.025021 -0.000001 0.000001 -0.000000 -47.319373 -3.914431 -9.188173 61.315360 1.403309 2.194958 13.523300 -15.100264 5.945758 0.098948 -0.000681 0.000497 -0.000001 -0.000000 0.000000 
